HIERARCHY
ROOT Hips
{
  OFFSET 53.7651 91.6464 6.48961
  CHANNELS 6 Xposition Yposition Zposition Zrotation Xrotation Yrotation
  JOINT spine
  {
    OFFSET 0 6.84637 0.3937
    CHANNELS 3 Zrotation Xrotation Yrotation
    JOINT spine1
    {
      OFFSET 0 9.49621 0
      CHANNELS 3 Zrotation Xrotation Yrotation
      JOINT spine2
      {
        OFFSET 0 9.09909 0
        CHANNELS 3 Zrotation Xrotation Yrotation
        JOINT Neck
        {
          OFFSET 0 23.3612 1.11378
          CHANNELS 3 Zrotation Xrotation Yrotation
          JOINT Head
          {
            OFFSET 0 7.05802 0
            CHANNELS 3 Zrotation Xrotation Yrotation
            End Site
            {
              OFFSET 0 17.0844 -5.63419
            }
          }
        }
        JOINT RightShoulder
        {
          OFFSET -3.83136 9.82631 -0.533491
          CHANNELS 3 Zrotation Xrotation Yrotation
          JOINT RightArm
          {
            OFFSET 0 12.8881 0
            CHANNELS 3 Zrotation Xrotation Yrotation
            JOINT RightArmRoll
            {
              OFFSET 0 6.50617 0
              CHANNELS 3 Zrotation Xrotation Yrotation
              JOINT RightForeArm
              {
                OFFSET 0 18.9501 0
                CHANNELS 3 Zrotation Xrotation Yrotation
                JOINT RightForeArmRoll
                {
                  OFFSET 0 7.30092 0
                  CHANNELS 3 Zrotation Xrotation Yrotation
                  JOINT RightHand
                  {
                    OFFSET 0 14.6514 0
                    CHANNELS 3 Zrotation Xrotation Yrotation
                    End Site
                    {
                      OFFSET 0 0 0
                    }
                  }
                }
              }
            }
          }
        }
        JOINT LeftShoulder
        {
          OFFSET 3.83136 9.82631 -0.533491
          CHANNELS 3 Zrotation Xrotation Yrotation
          JOINT LeftArm
          {
            OFFSET 0 12.8881 0
            CHANNELS 3 Zrotation Xrotation Yrotation
            JOINT LeftArmRoll
            {
              OFFSET 0 6.50616 0
              CHANNELS 3 Zrotation Xrotation Yrotation
              JOINT LeftForeArm
              {
                OFFSET 0 18.9501 0
                CHANNELS 3 Zrotation Xrotation Yrotation
                JOINT LeftForeArmRoll
                {
                  OFFSET 0 7.30092 0
                  CHANNELS 3 Zrotation Xrotation Yrotation
                  JOINT LeftHand
                  {
                    OFFSET 0 14.6514 0
                    CHANNELS 3 Zrotation Xrotation Yrotation
                    End Site
                    {
                      OFFSET 0 0 0
                    }
                  }
                }
              }
            }
          }
        }
      }
    }
  }
  JOINT RightUpLeg
  {
    OFFSET -6.06837 -1.11278 -0.933477
    CHANNELS 3 Zrotation Xrotation Yrotation
    JOINT RightUpLegRoll
    {
      OFFSET 0 17.1796 0
      CHANNELS 3 Zrotation Xrotation Yrotation
      JOINT RightLeg
      {
        OFFSET 0 -21.2743 0
        CHANNELS 3 Zrotation Xrotation Yrotation
        JOINT RightLegRoll
        {
          OFFSET 0 21.3439 0
          CHANNELS 3 Zrotation Xrotation Yrotation
          JOINT RightFoot
          {
            OFFSET 0 17.7652 0
            CHANNELS 3 Zrotation Xrotation Yrotation
            JOINT RightToeBase
            {
              OFFSET 0 14.8508 0
              CHANNELS 3 Zrotation Xrotation Yrotation
              End Site
              {
                OFFSET 0.0062947 7.19214 -0.829005
              }
            }
          }
        }
      }
    }
  }
  JOINT LeftUpLeg
  {
    OFFSET 6.06837 -1.11278 -0.933477
    CHANNELS 3 Zrotation Xrotation Yrotation
    JOINT LeftUpLegRoll
    {
      OFFSET 0 17.1797 0
      CHANNELS 3 Zrotation Xrotation Yrotation
      JOINT LeftLeg
      {
        OFFSET 0 21.2742 0
        CHANNELS 3 Zrotation Xrotation Yrotation
        JOINT LeftLegRoll
        {
          OFFSET 0 21.5412 0
          CHANNELS 3 Zrotation Xrotation Yrotation
          JOINT LeftFoot
          {
            OFFSET 0 17.5679 0
            CHANNELS 3 Zrotation Xrotation Yrotation
            JOINT LeftToeBase
            {
              OFFSET 0 14.8508 0
              CHANNELS 3 Zrotation Xrotation Yrotation
              End Site
              {
                OFFSET -0.0282102 7.19213 -0.829005
              }
            }
          }
        }
      }
    }
  }
}
MOTION
Frames: 12
Frame Time: 0.00208333
54.3434 91.5976 7.14093 0.439834 -4.99537 0.204635 0.142083 -1.60704 -0.121134 0.281762 0.808369 -0.262215 0.285068 2.45341 -0.267048 -5.72794 28.9719 2.4436 3.90752 -8.53577 0.613696 72.4624 8.72289 2.47217 99.5869 2.17068 13.0123 -1.34661e-005 4.41156e-007 -7.54988e-006 12.2702 12.9529 -2.35594 2.36277e-006 -5.73198e-007 -2.99999 8.02886 -4.95144 0.697671 -70.8934 2.75253 0.0588569 -102.492 8.66995 -20.9367 -1.32271e-006 3.4642e-006 2.78007e-006 -13.2587 2.03013 0.486154 2.56232e-006 -1.03084e-006 3.01079 -8.02888 -4.95146 -0.697695 174.578 -2.77642 2.03127 180 7.01524e-015 178.829 177.804 4.45442 179.963 8.80873e-007 1.2407e-006 0.0378756 -18.6377 67.8486 19.4046 8.13649 25.2327 -3.48773 -175.535 -5.89436 0.0934662 4.54188e-006 -4.6773e-006 -1.22087 -1.27411 -4.31088 0.0729836 1.48205e-006 -6.39018e-006 -0.036908 18.7047 67.9284 -19.4808 -8.13649 25.2327 3.48773 
54.3465 91.598 7.14271 0.424085 -4.99449 0.201206 0.14577 -1.60762 -0.120881 0.289152 0.805826 -0.261685 0.292455 2.45087 -0.266641 -5.7713 28.9699 2.45765 3.94877 -8.54117 0.616136 72.4412 8.73577 2.4824 99.5714 2.16454 12.985 -1.34661e-005 4.41156e-007 -7.54988e-006 12.2919 12.9752 -2.35987 2.36277e-006 -5.73198e-007 -2.99999 8.02886 -4.95144 0.697671 -70.9653 2.76957 0.0611047 -102.347 8.68666 -20.9058 -1.32271e-006 3.4642e-006 2.78007e-006 -13.3149 2.03211 0.485548 2.56232e-006 -1.03084e-006 3.01079 -8.02888 -4.95146 -0.697695 174.602 -2.77288 2.01981 180 7.01524e-015 178.829 177.8 4.45039 179.963 8.80873e-007 1.2407e-006 0.0378756 -18.6396 67.8508 19.4073 8.13649 25.2327 -3.48773 -175.511 -5.8916 0.0778356 4.54188e-006 -4.6773e-006 -1.22087 -1.27947 -4.31318 0.0725176 1.48205e-006 -6.39018e-006 -0.036908 18.7031 67.9264 -19.4791 -8.13649 25.2327 3.48773 
54.3544 91.601 7.14433 0.407479 -4.99409 0.197387 0.14963 -1.6081 -0.120605 0.296898 0.803474 -0.261112 0.300199 2.44852 -0.266198 -5.81496 28.9679 2.47191 3.9902 -8.54672 0.618686 72.4202 8.74842 2.49251 99.5575 2.15783 12.9596 -1.34661e-005 4.41156e-007 -7.54988e-006 12.3121 12.9965 -2.3636 2.36277e-006 -5.73198e-007 -2.99999 8.02886 -4.95144 0.697671 -71.0377 2.78665 0.0634194 -102.203 8.70262 -20.8758 -1.32271e-006 3.4642e-006 2.78007e-006 -13.3702 2.03287 0.484751 2.56232e-006 -1.03084e-006 3.01079 -8.02888 -4.95146 -0.697695 174.628 -2.76989 2.00765 180 7.01525e-015 178.83 177.797 4.44609 179.963 8.80873e-007 1.2407e-006 0.0378756 -18.6415 67.8531 19.4102 8.13649 25.2327 -3.48773 -175.486 -5.88944 0.061335 4.54188e-006 -4.6773e-006 -1.22087 -1.28511 -4.31544 0.0720275 1.48205e-006 -6.39018e-006 -0.036908 18.7015 67.9245 -19.4773 -8.13649 25.2327 3.48773 
54.3114 91.6045 7.14334 0.390274 -4.99404 0.193297 0.153612 -1.60851 -0.120313 0.304893 0.801254 -0.26051 0.308191 2.4463 -0.265729 -5.85882 28.9659 2.4863 4.03175 -8.55237 0.621312 72.3991 8.76092 2.50253 99.5446 2.15073 12.9355 -1.34661e-005 4.41156e-007 -7.54988e-006 12.3315 13.0171 -2.36719 2.36277e-006 -5.73198e-007 -2.99999 8.02886 -4.95144 0.697671 -71.1106 2.80375 0.0657809 -102.06 8.71808 -20.8464 -1.32271e-006 3.4642e-006 2.78007e-006 -13.4251 2.03278 0.483819 2.56232e-006 -1.03084e-006 3.01079 -8.02888 -4.95146 -0.697695 174.654 -2.76727 1.99499 180 7.01525e-015 178.831 177.794 4.44156 179.963 8.80873e-007 1.2407e-006 0.0378756 -18.6435 67.8556 19.4132 8.13649 25.2327 -3.48773 -175.46 -5.88769 0.0442254 4.54188e-006 -4.6773e-006 -1.22087 -1.29094 -4.31767 0.0715205 1.48205e-006 -6.39018e-006 -0.036908 18.6998 67.9225 -19.4755 -8.13649 25.2327 3.48773 
54.3125 91.6053 7.14415 0.372727 -4.99417 0.189052 0.157664 -1.60888 -0.120012 0.313031 0.799111 -0.259891 0.316326 2.44416 -0.265246 -5.9028 28.9639 2.50077 4.07339 -8.55807 0.623981 72.3781 8.77332 2.51251 99.5323 2.1434 12.9121 -1.34661e-005 4.41156e-007 -7.54988e-006 12.3502 13.0374 -2.37069 2.36277e-006 -5.73198e-007 -2.99999 8.02886 -4.95144 0.697671 -71.1837 2.82086 0.0681691 -101.918 8.73324 -20.8174 -1.32271e-006 3.4642e-006 2.78007e-006 -13.4796 2.03221 0.48281 2.56232e-006 -1.03084e-006 3.01079 -8.02888 -4.95146 -0.697695 174.681 -2.76487 1.98204 180 7.01525e-015 178.831 177.791 4.43693 179.963 8.80873e-007 1.2407e-006 0.0378756 -18.6455 67.858 19.4163 8.13649 25.2327 -3.48773 -175.433 -5.88618 0.0267679 4.54188e-006 -4.6773e-006 -1.22087 -1.29689 -4.31989 0.0710039 1.48205e-006 -6.39018e-006 -0.036908 18.6981 67.9205 -19.4737 -8.13649 25.2327 3.48773 
54.3482 91.5996 7.14826 0.355094 -4.99436 0.184767 0.161733 -1.60924 -0.119709 0.321204 0.796986 -0.259267 0.324496 2.44203 -0.264759 -5.9468 28.9618 2.51527 4.11504 -8.56379 0.626661 72.357 8.78569 2.52248 99.5202 2.13601 12.8889 -1.34661e-005 4.41156e-007 -7.54988e-006 12.3688 13.0576 -2.37418 2.36277e-006 -5.73198e-007 -2.99999 8.02886 -4.95144 0.697671 -71.2569 2.83798 0.0705641 -101.775 8.74833 -20.7885 -1.32271e-006 3.4642e-006 2.78007e-006 -13.534 2.03152 0.481783 2.56232e-006 -1.03084e-006 3.01079 -8.02888 -4.95146 -0.697695 174.708 -2.76252 1.96903 180 7.01525e-015 178.832 177.787 4.43228 179.963 8.80873e-007 1.2407e-006 0.0378756 -18.6476 67.8605 19.4194 8.13649 25.2327 -3.48773 -175.407 -5.88472 0.0092235 4.54188e-006 -4.6773e-006 -1.22087 -1.30286 -4.3221 0.0704848 1.48205e-006 -6.39018e-006 -0.036908 18.6965 67.9185 -19.4719 -8.13649 25.2327 3.48773 
54.337 91.6024 7.14742 0.337632 -4.99445 0.180561 0.165767 -1.60962 -0.11941 0.329306 0.794823 -0.258652 0.332595 2.43987 -0.26428 -5.99075 28.9598 2.52972 4.15665 -8.56948 0.62932 72.336 8.79811 2.53247 99.5078 2.12873 12.8654 -1.34661e-005 4.41156e-007 -7.54988e-006 12.3878 13.0779 -2.37771 2.36277e-006 -5.73198e-007 -2.99999 8.02886 -4.95144 0.697671 -71.33 2.85509 0.0729458 -101.632 8.76357 -20.7594 -1.32271e-006 3.4642e-006 2.78007e-006 -13.5886 2.03107 0.480793 2.56232e-006 -1.03084e-006 3.01079 -8.02888 -4.95146 -0.697695 174.735 -2.76006 1.95615 180 7.01525e-015 178.833 177.784 4.42769 179.963 8.80873e-007 1.2407e-006 0.0378756 -18.6496 67.863 19.4224 8.13649 25.2327 -3.48773 -175.38 -5.88315 -0.0081468 4.54188e-006 -4.6773e-006 -1.22087 -1.30878 -4.32432 0.0699706 1.48205e-006 -6.39018e-006 -0.036908 18.6948 67.9165 -19.4701 -8.13649 25.2327 3.48773 
54.3162 91.6049 7.1478 0.320598 -4.99429 0.176548 0.169714 -1.61005 -0.119122 0.33723 0.792566 -0.258059 0.340516 2.43761 -0.263819 -6.03455 28.9577 2.54407 4.19818 -8.5751 0.631924 72.3149 8.81065 2.54252 99.4946 2.12173 12.8409 -1.34661e-005 4.41156e-007 -7.54988e-006 12.4074 13.0988 -2.38134 2.36277e-006 -5.73198e-007 -2.99999 8.02886 -4.95144 0.697671 -71.4027 2.87218 0.0752942 -101.489 8.77918 -20.7298 -1.32271e-006 3.4642e-006 2.78007e-006 -13.6436 2.03123 0.4799 2.56232e-006 -1.03084e-006 3.01079 -8.02888 -4.95146 -0.697695 174.762 -2.75733 1.94363 180 7.01526e-015 178.833 177.781 4.42323 179.963 8.80873e-007 1.2407e-006 0.0378756 -18.6516 67.8654 19.4254 8.13649 25.2327 -3.48773 -175.355 -5.88128 -0.0250819 4.54188e-006 -4.6773e-006 -1.22087 -1.31455 -4.32656 0.0694684 1.48205e-006 -6.39018e-006 -0.036908 18.6931 67.9145 -19.4683 -8.13649 25.2327 3.48773 
54.3167 91.6025 7.15015 0.30425 -4.99375 0.172847 0.173522 -1.61057 -0.118854 0.344869 0.790156 -0.257499 0.348153 2.4352 -0.263386 -6.07811 28.9557 2.55826 4.23956 -8.5806 0.634441 72.2938 8.82337 2.55267 99.4802 2.11518 12.815 -1.34661e-005 4.41156e-007 -7.54988e-006 12.4281 13.1204 -2.38514 2.36277e-006 -5.73198e-007 -2.99999 8.02886 -4.95144 0.697671 -71.475 2.88925 0.0775893 -101.345 8.79539 -20.6995 -1.32271e-006 3.4642e-006 2.78007e-006 -13.6992 2.03236 0.47916 2.56232e-006 -1.03084e-006 3.01079 -8.02888 -4.95146 -0.697695 174.787 -2.75418 1.93168 180 7.01526e-015 178.834 177.778 4.41901 179.963 8.80873e-007 1.2407e-006 0.0378756 -18.6535 67.8677 19.4283 8.13649 25.2327 -3.48773 -175.33 -5.87893 -0.0413207 4.54188e-006 -4.6773e-006 -1.22087 -1.32011 -4.32883 0.0689855 1.48205e-006 -6.39018e-006 -0.036908 18.6915 67.9126 -19.4665 -8.13649 25.2327 3.48773 
54.2973 91.6045 7.14786 0.288844 -4.99268 0.169572 0.177139 -1.61119 -0.11861 0.352117 0.787538 -0.256985 0.355399 2.43258 -0.262994 -6.12135 28.9538 2.57223 4.28073 -8.58594 0.636839 72.2726 8.83633 2.56295 99.464 2.10925 12.787 -1.34661e-005 4.41156e-007 -7.54988e-006 12.4504 13.143 -2.38916 2.36277e-006 -5.73198e-007 -2.99999 8.02886 -4.95144 0.697671 -71.5466 2.90628 0.079811 -101.2 8.81242 -20.6682 -1.32271e-006 3.4642e-006 2.78007e-006 -13.7557 2.03481 0.478631 2.56232e-006 -1.03084e-006 3.01079 -8.02888 -4.95146 -0.697695 174.811 -2.75043 1.92051 180 7.01526e-015 178.835 177.774 4.4151 179.963 8.80873e-007 1.2407e-006 0.0378756 -18.6553 67.8698 19.431 8.13649 25.2327 -3.48773 -175.307 -5.87593 -0.0566021 4.54188e-006 -4.6773e-006 -1.22087 -1.32536 -4.33115 0.0685292 1.48205e-006 -6.39018e-006 -0.036908 18.6899 67.9106 -19.4648 -8.13649 25.2327 3.48773 
54.2979 91.6081 7.14996 0.274637 -4.99093 0.166842 0.180514 -1.61196 -0.118399 0.358867 0.784653 -0.256531 0.362147 2.4297 -0.262653 -6.16417 28.9518 2.58592 4.32166 -8.59108 0.639085 72.2514 8.84961 2.57339 99.4458 2.1041 12.7563 -1.34661e-005 4.41156e-007 -7.54988e-006 12.4746 13.167 -2.39348 2.36277e-006 -5.73198e-007 -2.99999 8.02886 -4.95144 0.697671 -71.6174 2.92326 0.0819393 -101.053 8.83049 -20.6356 -1.32271e-006 3.4642e-006 2.78007e-006 -13.8132 2.03897 0.47837 2.56232e-006 -1.03084e-006 3.01079 -8.02888 -4.95146 -0.697695 174.833 -2.74593 1.91033 180 7.01526e-015 178.835 177.771 4.41159 179.963 8.80873e-007 1.2407e-006 0.0378756 -18.6569 67.8717 19.4335 8.13649 25.2327 -3.48773 -175.285 -5.8721 -0.070665 4.54188e-006 -4.6773e-006 -1.22087 -1.33023 -4.33353 0.0681066 1.48205e-006 -6.39018e-006 -0.036908 18.6884 67.9088 -19.4631 -8.13649 25.2327 3.48773 
54.2874 91.6065 7.13709 0.261886 -4.98835 0.164772 0.183593 -1.61291 -0.118227 0.365012 0.781446 -0.256149 0.36829 2.42649 -0.262373 -6.2065 28.95 2.59927 4.36227 -8.59597 0.641146 72.2301 8.86328 2.58404 99.4249 2.09991 12.7225 -1.34661e-005 4.41156e-007 -7.54988e-006 12.5012 13.1926 -2.39815 2.36277e-006 -5.73198e-007 -2.99999 8.02886 -4.95144 0.697671 -71.6871 2.94018 0.0839542 -100.904 8.84982 -20.6015 -1.32271e-006 3.4642e-006 2.78007e-006 -13.8721 2.04518 0.478436 2.56232e-006 -1.03084e-006 3.01079 -8.02888 -4.95146 -0.697695 174.852 -2.74052 1.90136 180 7.01526e-015 178.836 177.767 4.40858 179.964 8.80873e-007 1.2407e-006 0.0378756 -18.6583 67.8735 19.4357 8.13649 25.2327 -3.48773 -175.266 -5.86727 -0.0832482 4.54188e-006 -4.6773e-006 -1.22087 -1.33463 -4.33599 0.067725 1.48205e-006 -6.39018e-006 -0.036908 18.6869 67.907 -19.4615 -8.13649 25.2327 3.48773 
